<mxfile host="drawio-plugin" modified="2022-10-04T22:05:31.377Z" agent="5.0 (Windows NT 6.2; Win64; x64) AppleWebKit/537.36 (KHTML, like Gecko) Chrome/98.0.4758.102 Safari/537.36" etag="YjI9x2L1GvcdNUKpqi2J" version="15.5.4" type="embed"><diagram id="sa6Q3xUmAi24UDrEMSUv" name="Página-1"><mxGraphModel dx="1499" dy="1689" grid="1" gridSize="10" guides="1" tooltips="1" connect="1" arrows="1" fold="1" page="1" pageScale="1" pageWidth="827" pageHeight="1169" math="0" shadow="0"><root><mxCell id="0"/><mxCell id="1" parent="0"/><mxCell id="XrOO0wk5_OICAEsCVDQP-19" style="edgeStyle=orthogonalEdgeStyle;rounded=0;orthogonalLoop=1;jettySize=auto;html=1;endArrow=none;endFill=0;shape=link;" parent="1" edge="1"><mxGeometry relative="1" as="geometry"><mxPoint x="180" y="85" as="sourcePoint"/><mxPoint x="180" y="152" as="targetPoint"/></mxGeometry></mxCell><mxCell id="XrOO0wk5_OICAEsCVDQP-20" style="edgeStyle=orthogonalEdgeStyle;rounded=0;orthogonalLoop=1;jettySize=auto;html=1;endArrow=none;endFill=0;horizontal=1;shape=link;" parent="1" edge="1"><mxGeometry relative="1" as="geometry"><mxPoint x="180" y="290" as="targetPoint"/><mxPoint x="180" y="212" as="sourcePoint"/><Array as="points"><mxPoint x="180" y="300"/></Array></mxGeometry></mxCell><mxCell id="XrOO0wk5_OICAEsCVDQP-22" value="1" style="text;html=1;align=center;verticalAlign=middle;resizable=0;points=[];autosize=1;strokeColor=none;fillColor=none;" parent="1" vertex="1"><mxGeometry x="155" y="85" width="30" height="30" as="geometry"/></mxCell><mxCell id="5" value="PLAYER" style="whiteSpace=wrap;html=1;align=center;" parent="1" vertex="1"><mxGeometry x="130" y="279" width="100" height="40" as="geometry"/></mxCell><mxCell id="9" value="" style="shape=link;html=1;rounded=0;exitX=0.5;exitY=1;exitDx=0;exitDy=0;startArrow=none;" parent="1" source="13" edge="1"><mxGeometry relative="1" as="geometry"><mxPoint x="240" y="180" as="sourcePoint"/><mxPoint x="180" y="390" as="targetPoint"/></mxGeometry></mxCell><mxCell id="10" value="1" style="resizable=0;html=1;align=right;verticalAlign=bottom;" parent="9" connectable="0" vertex="1"><mxGeometry x="1" relative="1" as="geometry"/></mxCell><mxCell id="11" value="PLAYER_1" style="whiteSpace=wrap;html=1;align=center;" parent="1" vertex="1"><mxGeometry x="55" y="430" width="100" height="40" as="geometry"/></mxCell><mxCell id="12" value="PLAYER_2" style="whiteSpace=wrap;html=1;align=center;" parent="1" vertex="1"><mxGeometry x="240" y="431" width="100" height="40" as="geometry"/></mxCell><mxCell id="13" value="" style="ellipse;whiteSpace=wrap;html=1;" parent="1" vertex="1"><mxGeometry x="165" y="370" width="30" height="30" as="geometry"/></mxCell><mxCell id="14" value="" style="shape=link;html=1;rounded=0;exitX=0.5;exitY=1;exitDx=0;exitDy=0;endArrow=none;" parent="1" source="5" target="13" edge="1"><mxGeometry relative="1" as="geometry"><mxPoint x="180" y="319" as="sourcePoint"/><mxPoint x="180" y="390" as="targetPoint"/></mxGeometry></mxCell><mxCell id="17" value="" style="endArrow=none;html=1;rounded=0;exitX=0.5;exitY=0;exitDx=0;exitDy=0;entryX=0;entryY=0.5;entryDx=0;entryDy=0;" parent="1" source="11" target="13" edge="1"><mxGeometry relative="1" as="geometry"><mxPoint x="210" y="300" as="sourcePoint"/><mxPoint x="370" y="300" as="targetPoint"/></mxGeometry></mxCell><mxCell id="18" value="" style="endArrow=none;html=1;rounded=0;exitX=0.5;exitY=0;exitDx=0;exitDy=0;entryX=1;entryY=0.5;entryDx=0;entryDy=0;" parent="1" source="12" target="13" edge="1"><mxGeometry relative="1" as="geometry"><mxPoint x="115" y="440" as="sourcePoint"/><mxPoint x="175" y="395" as="targetPoint"/></mxGeometry></mxCell><mxCell id="19" value="d" style="text;html=1;strokeColor=none;fillColor=none;align=center;verticalAlign=middle;whiteSpace=wrap;rounded=0;" parent="1" vertex="1"><mxGeometry x="150" y="370" width="60" height="30" as="geometry"/></mxCell><mxCell id="20" value="2" style="text;html=1;align=center;verticalAlign=middle;resizable=0;points=[];autosize=1;strokeColor=none;fillColor=none;" parent="1" vertex="1"><mxGeometry x="160" y="254" width="20" height="20" as="geometry"/></mxCell><mxCell id="84" style="edgeStyle=orthogonalEdgeStyle;rounded=0;orthogonalLoop=1;jettySize=auto;html=1;endArrow=none;endFill=0;" parent="1" source="24" target="83" edge="1"><mxGeometry relative="1" as="geometry"/></mxCell><mxCell id="24" value="USER" style="whiteSpace=wrap;html=1;align=center;" parent="1" vertex="1"><mxGeometry x="510" y="279" width="100" height="40" as="geometry"/></mxCell><mxCell id="27" style="edgeStyle=orthogonalEdgeStyle;rounded=0;orthogonalLoop=1;jettySize=auto;html=1;endArrow=none;endFill=0;" parent="1" source="25" target="24" edge="1"><mxGeometry relative="1" as="geometry"/></mxCell><mxCell id="25" value="is" style="shape=rhombus;perimeter=rhombusPerimeter;whiteSpace=wrap;html=1;align=center;" parent="1" vertex="1"><mxGeometry x="310" y="269" width="120" height="60" as="geometry"/></mxCell><mxCell id="29" value="" style="endArrow=none;html=1;rounded=0;verticalAlign=middle;exitX=1;exitY=0.5;exitDx=0;exitDy=0;entryX=0;entryY=0.5;entryDx=0;entryDy=0;shape=link;" parent="1" source="5" target="25" edge="1"><mxGeometry relative="1" as="geometry"><mxPoint x="220" y="310" as="sourcePoint"/><mxPoint x="380" y="310" as="targetPoint"/></mxGeometry></mxCell><mxCell id="30" value="1" style="text;html=1;align=center;verticalAlign=middle;resizable=0;points=[];autosize=1;strokeColor=none;fillColor=none;" parent="1" vertex="1"><mxGeometry x="230" y="274" width="30" height="30" as="geometry"/></mxCell><mxCell id="31" value="1" style="text;html=1;align=center;verticalAlign=middle;resizable=0;points=[];autosize=1;strokeColor=none;fillColor=none;" parent="1" vertex="1"><mxGeometry x="480" y="274" width="30" height="30" as="geometry"/></mxCell><mxCell id="32" value="id" style="ellipse;whiteSpace=wrap;html=1;align=center;fontStyle=4" parent="1" vertex="1"><mxGeometry x="620" y="229" width="100" height="40" as="geometry"/></mxCell><mxCell id="33" style="edgeStyle=orthogonalEdgeStyle;rounded=0;orthogonalLoop=1;jettySize=auto;html=1;endArrow=none;endFill=0;exitX=0.5;exitY=0;exitDx=0;exitDy=0;entryX=0.5;entryY=0;entryDx=0;entryDy=0;" parent="1" source="32" target="24" edge="1"><mxGeometry relative="1" as="geometry"><mxPoint x="440" y="309" as="sourcePoint"/><mxPoint x="520" y="309" as="targetPoint"/></mxGeometry></mxCell><mxCell id="37" style="edgeStyle=orthogonalEdgeStyle;rounded=0;orthogonalLoop=1;jettySize=auto;html=1;entryX=0.5;entryY=0;entryDx=0;entryDy=0;endArrow=none;endFill=0;" parent="1" source="34" target="36" edge="1"><mxGeometry relative="1" as="geometry"/></mxCell><mxCell id="34" value="GAME" style="shape=ext;margin=3;double=1;whiteSpace=wrap;html=1;align=center;" parent="1" vertex="1"><mxGeometry x="130" y="45" width="100" height="40" as="geometry"/></mxCell><mxCell id="35" value="have" style="shape=rhombus;double=1;perimeter=rhombusPerimeter;whiteSpace=wrap;html=1;align=center;" parent="1" vertex="1"><mxGeometry x="120" y="150" width="120" height="60" as="geometry"/></mxCell><mxCell id="36" value="STATE" style="whiteSpace=wrap;html=1;align=center;" parent="1" vertex="1"><mxGeometry x="-220" y="90" width="100" height="40" as="geometry"/></mxCell><mxCell id="38" value="" style="shape=link;html=1;rounded=0;exitX=0.5;exitY=1;exitDx=0;exitDy=0;endArrow=none;" parent="1" source="36" edge="1"><mxGeometry relative="1" as="geometry"><mxPoint x="80" y="289" as="sourcePoint"/><mxPoint x="-170" y="190" as="targetPoint"/></mxGeometry></mxCell><mxCell id="39" value="WARMUP" style="whiteSpace=wrap;html=1;align=center;" parent="1" vertex="1"><mxGeometry x="-380" y="304" width="100" height="40" as="geometry"/></mxCell><mxCell id="44" value="" style="ellipse;whiteSpace=wrap;html=1;" parent="1" vertex="1"><mxGeometry x="-185" y="184" width="30" height="30" as="geometry"/></mxCell><mxCell id="45" value="d" style="text;html=1;strokeColor=none;fillColor=none;align=center;verticalAlign=middle;whiteSpace=wrap;rounded=0;" parent="1" vertex="1"><mxGeometry x="-200" y="184" width="60" height="30" as="geometry"/></mxCell><mxCell id="46" value="" style="endArrow=none;html=1;rounded=0;exitX=0.5;exitY=0;exitDx=0;exitDy=0;" parent="1" source="39" edge="1"><mxGeometry relative="1" as="geometry"><mxPoint x="115" y="440" as="sourcePoint"/><mxPoint x="-180" y="210" as="targetPoint"/></mxGeometry></mxCell><mxCell id="47" value="BATTLE" style="whiteSpace=wrap;html=1;align=center;" parent="1" vertex="1"><mxGeometry x="-220" y="304" width="100" height="40" as="geometry"/></mxCell><mxCell id="48" value="END" style="whiteSpace=wrap;html=1;align=center;" parent="1" vertex="1"><mxGeometry x="-70" y="304" width="100" height="40" as="geometry"/></mxCell><mxCell id="49" value="" style="endArrow=none;html=1;rounded=0;exitX=0.5;exitY=0;exitDx=0;exitDy=0;entryX=0.5;entryY=1;entryDx=0;entryDy=0;" parent="1" source="47" target="45" edge="1"><mxGeometry relative="1" as="geometry"><mxPoint x="-320" y="314" as="sourcePoint"/><mxPoint x="-160" y="209" as="targetPoint"/></mxGeometry></mxCell><mxCell id="50" value="" style="endArrow=none;html=1;rounded=0;exitX=0.5;exitY=0;exitDx=0;exitDy=0;entryX=0.75;entryY=1;entryDx=0;entryDy=0;" parent="1" source="48" target="45" edge="1"><mxGeometry relative="1" as="geometry"><mxPoint x="-320" y="314" as="sourcePoint"/><mxPoint x="-170" y="220" as="targetPoint"/></mxGeometry></mxCell><mxCell id="56" style="edgeStyle=orthogonalEdgeStyle;rounded=0;orthogonalLoop=1;jettySize=auto;html=1;endArrow=none;endFill=0;" parent="1" source="55" target="34" edge="1"><mxGeometry relative="1" as="geometry"/></mxCell><mxCell id="87" style="edgeStyle=orthogonalEdgeStyle;rounded=0;orthogonalLoop=1;jettySize=auto;html=1;entryX=0;entryY=0.5;entryDx=0;entryDy=0;endArrow=none;endFill=0;" parent="1" source="55" target="86" edge="1"><mxGeometry relative="1" as="geometry"/></mxCell><mxCell id="55" value="CONFIGURATION" style="shape=ext;margin=3;double=1;whiteSpace=wrap;html=1;align=center;" parent="1" vertex="1"><mxGeometry x="430" y="45" width="140" height="40" as="geometry"/></mxCell><mxCell id="58" style="edgeStyle=orthogonalEdgeStyle;rounded=0;orthogonalLoop=1;jettySize=auto;html=1;endArrow=none;endFill=0;" parent="1" source="57" target="55" edge="1"><mxGeometry relative="1" as="geometry"/></mxCell><mxCell id="57" value="board_size" style="ellipse;whiteSpace=wrap;html=1;align=center;" parent="1" vertex="1"><mxGeometry x="330" y="-70" width="100" height="40" as="geometry"/></mxCell><mxCell id="61" style="edgeStyle=orthogonalEdgeStyle;rounded=0;orthogonalLoop=1;jettySize=auto;html=1;entryX=0.75;entryY=0;entryDx=0;entryDy=0;endArrow=none;endFill=0;" parent="1" source="59" target="55" edge="1"><mxGeometry relative="1" as="geometry"/></mxCell><mxCell id="59" value="n_shots" style="ellipse;whiteSpace=wrap;html=1;align=center;" parent="1" vertex="1"><mxGeometry x="470" y="-70" width="100" height="40" as="geometry"/></mxCell><mxCell id="63" style="edgeStyle=orthogonalEdgeStyle;rounded=0;orthogonalLoop=1;jettySize=auto;html=1;entryX=1;entryY=0.5;entryDx=0;entryDy=0;endArrow=none;endFill=0;" parent="1" source="62" target="55" edge="1"><mxGeometry relative="1" as="geometry"/></mxCell><mxCell id="62" value="timeout" style="ellipse;whiteSpace=wrap;html=1;align=center;" parent="1" vertex="1"><mxGeometry x="600" y="-60" width="100" height="40" as="geometry"/></mxCell><mxCell id="65" value="SHIP" style="whiteSpace=wrap;html=1;align=center;" parent="1" vertex="1"><mxGeometry x="1050" width="100" height="40" as="geometry"/></mxCell><mxCell id="66" value="" style="shape=link;html=1;rounded=0;exitX=0.5;exitY=1;exitDx=0;exitDy=0;endArrow=none;" parent="1" source="65" edge="1"><mxGeometry relative="1" as="geometry"><mxPoint x="1350" y="199" as="sourcePoint"/><mxPoint x="1100" y="100" as="targetPoint"/></mxGeometry></mxCell><mxCell id="67" value="CARRIER" style="whiteSpace=wrap;html=1;align=center;" parent="1" vertex="1"><mxGeometry x="770" y="214" width="100" height="40" as="geometry"/></mxCell><mxCell id="68" value="" style="ellipse;whiteSpace=wrap;html=1;" parent="1" vertex="1"><mxGeometry x="1085" y="94" width="30" height="30" as="geometry"/></mxCell><mxCell id="69" value="d" style="text;html=1;strokeColor=none;fillColor=none;align=center;verticalAlign=middle;whiteSpace=wrap;rounded=0;" parent="1" vertex="1"><mxGeometry x="1070" y="94" width="60" height="30" as="geometry"/></mxCell><mxCell id="70" value="" style="endArrow=none;html=1;rounded=0;exitX=0.5;exitY=0;exitDx=0;exitDy=0;" parent="1" source="67" target="69" edge="1"><mxGeometry relative="1" as="geometry"><mxPoint x="1265" y="350" as="sourcePoint"/><mxPoint x="970" y="120" as="targetPoint"/></mxGeometry></mxCell><mxCell id="71" value="BATTLESHIP" style="whiteSpace=wrap;html=1;align=center;" parent="1" vertex="1"><mxGeometry x="930" y="214" width="100" height="40" as="geometry"/></mxCell><mxCell id="72" value="CRUISER" style="whiteSpace=wrap;html=1;align=center;" parent="1" vertex="1"><mxGeometry x="1080" y="214" width="100" height="40" as="geometry"/></mxCell><mxCell id="73" value="" style="endArrow=none;html=1;rounded=0;exitX=0.5;exitY=0;exitDx=0;exitDy=0;entryX=0.5;entryY=1;entryDx=0;entryDy=0;" parent="1" source="71" target="69" edge="1"><mxGeometry relative="1" as="geometry"><mxPoint x="830" y="224" as="sourcePoint"/><mxPoint x="990" y="119" as="targetPoint"/></mxGeometry></mxCell><mxCell id="74" value="" style="endArrow=none;html=1;rounded=0;exitX=0.5;exitY=0;exitDx=0;exitDy=0;entryX=0.75;entryY=1;entryDx=0;entryDy=0;" parent="1" source="72" target="69" edge="1"><mxGeometry relative="1" as="geometry"><mxPoint x="830" y="224" as="sourcePoint"/><mxPoint x="980" y="130" as="targetPoint"/></mxGeometry></mxCell><mxCell id="77" value="DESTROYER" style="whiteSpace=wrap;html=1;align=center;" parent="1" vertex="1"><mxGeometry x="1360" y="217" width="100" height="40" as="geometry"/></mxCell><mxCell id="78" value="SUBMARINE" style="whiteSpace=wrap;html=1;align=center;" parent="1" vertex="1"><mxGeometry x="1210" y="217" width="100" height="40" as="geometry"/></mxCell><mxCell id="79" value="" style="endArrow=none;html=1;rounded=0;exitX=0.5;exitY=0;exitDx=0;exitDy=0;" parent="1" source="78" target="69" edge="1"><mxGeometry relative="1" as="geometry"><mxPoint x="1110" y="227" as="sourcePoint"/><mxPoint x="1260" y="127" as="targetPoint"/></mxGeometry></mxCell><mxCell id="80" value="" style="endArrow=none;html=1;rounded=0;exitX=0.5;exitY=0;exitDx=0;exitDy=0;" parent="1" source="77" target="69" edge="1"><mxGeometry relative="1" as="geometry"><mxPoint x="1110" y="227" as="sourcePoint"/><mxPoint x="1275" y="127" as="targetPoint"/></mxGeometry></mxCell><mxCell id="83" value="pass_hash" style="ellipse;whiteSpace=wrap;html=1;align=center;fontStyle=4" parent="1" vertex="1"><mxGeometry x="630" y="370" width="100" height="40" as="geometry"/></mxCell><mxCell id="88" style="edgeStyle=orthogonalEdgeStyle;rounded=0;orthogonalLoop=1;jettySize=auto;html=1;endArrow=none;endFill=0;" parent="1" source="86" target="65" edge="1"><mxGeometry relative="1" as="geometry"/></mxCell><mxCell id="86" value="has" style="shape=rhombus;perimeter=rhombusPerimeter;whiteSpace=wrap;html=1;align=center;" parent="1" vertex="1"><mxGeometry x="800" width="120" height="60" as="geometry"/></mxCell><mxCell id="89" value="1" style="text;html=1;align=center;verticalAlign=middle;resizable=0;points=[];autosize=1;strokeColor=none;fillColor=none;" parent="1" vertex="1"><mxGeometry x="580" y="70" width="30" height="30" as="geometry"/></mxCell><mxCell id="90" value="N" style="text;html=1;align=center;verticalAlign=middle;resizable=0;points=[];autosize=1;strokeColor=none;fillColor=none;" parent="1" vertex="1"><mxGeometry x="1010" width="20" height="20" as="geometry"/></mxCell><mxCell id="92" style="edgeStyle=orthogonalEdgeStyle;rounded=0;orthogonalLoop=1;jettySize=auto;html=1;endArrow=none;endFill=0;" parent="1" source="91" target="86" edge="1"><mxGeometry relative="1" as="geometry"/></mxCell><mxCell id="91" value="size" style="ellipse;whiteSpace=wrap;html=1;align=center;" parent="1" vertex="1"><mxGeometry x="810" y="-90" width="100" height="40" as="geometry"/></mxCell><mxCell id="96" style="edgeStyle=orthogonalEdgeStyle;rounded=0;orthogonalLoop=1;jettySize=auto;html=1;entryX=0.5;entryY=0.167;entryDx=0;entryDy=0;entryPerimeter=0;" edge="1" parent="1" source="93" target="95"><mxGeometry relative="1" as="geometry"/></mxCell><mxCell id="117" style="edgeStyle=orthogonalEdgeStyle;rounded=0;orthogonalLoop=1;jettySize=auto;html=1;entryX=1;entryY=0.5;entryDx=0;entryDy=0;endArrow=none;endFill=0;" edge="1" parent="1" source="93" target="116"><mxGeometry relative="1" as="geometry"/></mxCell><mxCell id="93" value="BOARD" style="shape=ext;margin=3;double=1;whiteSpace=wrap;html=1;align=center;" vertex="1" parent="1"><mxGeometry x="130" y="-230" width="100" height="40" as="geometry"/></mxCell><mxCell id="97" style="edgeStyle=orthogonalEdgeStyle;rounded=0;orthogonalLoop=1;jettySize=auto;html=1;endArrow=none;endFill=0;" edge="1" parent="1" source="95" target="34"><mxGeometry relative="1" as="geometry"><mxPoint x="180" y="60" as="targetPoint"/></mxGeometry></mxCell><mxCell id="95" value="have" style="shape=rhombus;double=1;perimeter=rhombusPerimeter;whiteSpace=wrap;html=1;align=center;" vertex="1" parent="1"><mxGeometry x="120" y="-110" width="120" height="60" as="geometry"/></mxCell><mxCell id="98" value="1" style="text;html=1;align=center;verticalAlign=middle;resizable=0;points=[];autosize=1;strokeColor=none;fillColor=none;" vertex="1" parent="1"><mxGeometry x="150" y="15" width="30" height="30" as="geometry"/></mxCell><mxCell id="99" value="1" style="text;html=1;align=center;verticalAlign=middle;resizable=0;points=[];autosize=1;strokeColor=none;fillColor=none;" vertex="1" parent="1"><mxGeometry x="150" y="-190" width="30" height="30" as="geometry"/></mxCell><mxCell id="100" value="PANEL" style="shape=ext;margin=3;double=1;whiteSpace=wrap;html=1;align=center;" vertex="1" parent="1"><mxGeometry x="-210" y="-280" width="100" height="40" as="geometry"/></mxCell><mxCell id="101" value="WATER" style="whiteSpace=wrap;html=1;align=center;" vertex="1" parent="1"><mxGeometry x="-330" y="-50" width="100" height="40" as="geometry"/></mxCell><mxCell id="102" value="" style="ellipse;whiteSpace=wrap;html=1;" vertex="1" parent="1"><mxGeometry x="-175" y="-170" width="30" height="30" as="geometry"/></mxCell><mxCell id="103" value="d" style="text;html=1;strokeColor=none;fillColor=none;align=center;verticalAlign=middle;whiteSpace=wrap;rounded=0;" vertex="1" parent="1"><mxGeometry x="-190" y="-170" width="60" height="30" as="geometry"/></mxCell><mxCell id="104" value="" style="endArrow=none;html=1;rounded=0;exitX=0.5;exitY=0;exitDx=0;exitDy=0;" edge="1" source="101" parent="1"><mxGeometry relative="1" as="geometry"><mxPoint x="125" y="86" as="sourcePoint"/><mxPoint x="-170" y="-144" as="targetPoint"/></mxGeometry></mxCell><mxCell id="105" value="SHIP" style="whiteSpace=wrap;html=1;align=center;" vertex="1" parent="1"><mxGeometry x="-145" y="-50" width="100" height="40" as="geometry"/></mxCell><mxCell id="107" value="" style="endArrow=none;html=1;rounded=0;exitX=0.5;exitY=0;exitDx=0;exitDy=0;entryX=0.5;entryY=1;entryDx=0;entryDy=0;" edge="1" source="105" target="103" parent="1"><mxGeometry relative="1" as="geometry"><mxPoint x="-310" y="-40" as="sourcePoint"/><mxPoint x="-150" y="-145" as="targetPoint"/></mxGeometry></mxCell><mxCell id="112" value="" style="shape=link;html=1;rounded=0;" edge="1" parent="1" source="100" target="103"><mxGeometry relative="1" as="geometry"><mxPoint x="-170" y="-360" as="sourcePoint"/><mxPoint x="-10" y="-360" as="targetPoint"/></mxGeometry></mxCell><mxCell id="114" value="N" style="resizable=0;html=1;align=right;verticalAlign=bottom;" connectable="0" vertex="1" parent="112"><mxGeometry x="1" relative="1" as="geometry"><mxPoint y="-110" as="offset"/></mxGeometry></mxCell><mxCell id="118" style="edgeStyle=orthogonalEdgeStyle;rounded=0;orthogonalLoop=1;jettySize=auto;html=1;endArrow=none;endFill=0;" edge="1" parent="1" source="116" target="100"><mxGeometry relative="1" as="geometry"/></mxCell><mxCell id="124" style="edgeStyle=orthogonalEdgeStyle;rounded=0;orthogonalLoop=1;jettySize=auto;html=1;entryX=0.5;entryY=1;entryDx=0;entryDy=0;endArrow=none;endFill=0;" edge="1" parent="1" source="116" target="123"><mxGeometry relative="1" as="geometry"/></mxCell><mxCell id="116" value="have" style="shape=rhombus;double=1;perimeter=rhombusPerimeter;whiteSpace=wrap;html=1;align=center;" vertex="1" parent="1"><mxGeometry x="-80" y="-380" width="120" height="60" as="geometry"/></mxCell><mxCell id="119" value="1" style="text;html=1;align=center;verticalAlign=middle;resizable=0;points=[];autosize=1;strokeColor=none;fillColor=none;" vertex="1" parent="1"><mxGeometry x="100" y="-241" width="30" height="30" as="geometry"/></mxCell><mxCell id="121" style="edgeStyle=orthogonalEdgeStyle;rounded=0;orthogonalLoop=1;jettySize=auto;html=1;entryX=0;entryY=0.5;entryDx=0;entryDy=0;endArrow=none;endFill=0;" edge="1" parent="1" source="120" target="100"><mxGeometry relative="1" as="geometry"/></mxCell><mxCell id="120" value="hit" style="ellipse;whiteSpace=wrap;html=1;align=center;" vertex="1" parent="1"><mxGeometry x="-380" y="-280" width="100" height="40" as="geometry"/></mxCell><mxCell id="123" value="* idx" style="ellipse;whiteSpace=wrap;html=1;align=center;" vertex="1" parent="1"><mxGeometry x="-70" y="-460" width="100" height="40" as="geometry"/></mxCell><mxCell id="125" value="* represents a coordinate in the server" style="text;html=1;strokeColor=none;fillColor=none;align=center;verticalAlign=middle;whiteSpace=wrap;rounded=0;" vertex="1" parent="1"><mxGeometry x="-140" y="-500" width="240" height="30" as="geometry"/></mxCell></root></mxGraphModel></diagram></mxfile>